<svg xmlns="http://www.w3.org/2000/svg" viewBox="0 0 182.05 157.75"><defs><style>.cls-1{fill:#a538e3;}</style></defs><title>spikey_1</title><g id="Layer_2" data-name="Layer 2"><g id="Layer_1-2" data-name="Layer 1"><path class="cls-1" d="M11.82,8,68.06,15.7a10.36,10.36,0,0,0,4.82-.47L115.2.57a10.41,10.41,0,0,1,13.17,6.27l7.15,19.68a10.4,10.4,0,0,0,7.78,6.65l22.76,4.45a10.39,10.39,0,0,1,8.32,11.48l-3.07,24.68a10.39,10.39,0,0,0,4.42,9.84l1.82,1.26a10.39,10.39,0,0,1,1,16.36l-18.88,16.6a10.4,10.4,0,0,0-3.51,8.37l.6,11.07a10.4,10.4,0,0,1-17.44,8.19L121.2,128.76a10.38,10.38,0,0,0-14.65.55L83.13,154.45a10.39,10.39,0,0,1-15.42-.24l-10-11.43a10.4,10.4,0,0,0-10.27-3.25L20.35,146.1A10.39,10.39,0,0,1,9.78,129.51L25,110.45a10.4,10.4,0,0,0,1.75-9.76L.54,21.52A10.39,10.39,0,0,1,11.82,8Z"/></g></g></svg>