<svg xmlns="http://www.w3.org/2000/svg" viewBox="0 0 259 32"><defs><style>.cls-1{fill:#ec469c;}</style></defs><title>squiggle</title><g id="Layer_2" data-name="Layer 2"><g id="Layer_1-2" data-name="Layer 1"><path class="cls-1" d="M254,32c-6.8,0-8.9-7.81-10.76-14.7-.3-1.11-.69-2.56-1.11-3.91-.41,1.35-.8,2.79-1.1,3.91-1.86,6.89-4,14.7-10.76,14.7s-8.9-7.81-10.76-14.7c-.3-1.11-.69-2.55-1.1-3.91-.41,1.36-.8,2.8-1.1,3.91-1.86,6.89-4,14.7-10.76,14.7s-8.9-7.81-10.76-14.7c-.3-1.11-.69-2.55-1.1-3.9-.41,1.35-.8,2.79-1.1,3.9-1.85,6.89-4,14.7-10.75,14.7s-8.9-7.81-10.76-14.7c-.3-1.11-.69-2.55-1.1-3.9-.42,1.35-.8,2.79-1.1,3.9-1.86,6.89-4,14.7-10.76,14.7s-8.9-7.81-10.76-14.7c-.3-1.11-.68-2.55-1.1-3.9-.41,1.35-.8,2.79-1.1,3.9-1.85,6.89-4,14.7-10.76,14.7s-8.89-7.81-10.75-14.7c-.3-1.11-.69-2.55-1.1-3.9-.42,1.35-.8,2.79-1.1,3.9-1.86,6.89-4,14.7-10.76,14.7s-8.9-7.81-10.75-14.7c-.3-1.11-.69-2.55-1.1-3.9-.42,1.35-.8,2.79-1.1,3.9C96.88,24.19,94.78,32,88,32s-8.9-7.81-10.76-14.7c-.3-1.11-.68-2.55-1.09-3.9-.42,1.35-.8,2.79-1.1,3.9-1.86,6.89-4,14.7-10.76,14.7s-8.9-7.81-10.75-14.7c-.3-1.11-.69-2.55-1.1-3.9-.41,1.35-.8,2.79-1.1,3.9-1.86,6.89-4,14.7-10.75,14.7s-8.9-7.81-10.76-14.7c-.3-1.11-.69-2.55-1.1-3.9-.41,1.35-.8,2.79-1.1,3.9-1.86,6.89-4,14.7-10.75,14.7S8,24.19,6.1,17.3A43.85,43.85,0,0,0,3.64,9.81,5,5,0,0,1,5,0c6.79,0,8.9,7.81,10.76,14.7.3,1.11.68,2.55,1.1,3.9.41-1.35.8-2.79,1.1-3.9C19.81,7.81,21.92,0,28.71,0s8.9,7.81,10.76,14.7c.3,1.11.68,2.55,1.1,3.9.41-1.35.79-2.79,1.09-3.9C43.52,7.81,45.62,0,52.42,0s8.9,7.81,10.75,14.7c.3,1.11.69,2.55,1.1,3.9.42-1.35.8-2.79,1.1-3.9C67.23,7.81,69.33,0,76.12,0S85,7.81,86.88,14.7c.3,1.11.69,2.55,1.1,3.9.41-1.35.8-2.79,1.1-3.9C90.94,7.81,93,0,99.84,0s8.9,7.81,10.75,14.7c.3,1.11.69,2.55,1.1,3.9.42-1.35.8-2.79,1.1-3.9,1.86-6.89,4-14.7,10.76-14.7s8.9,7.81,10.75,14.7c.3,1.11.69,2.55,1.11,3.9.41-1.35.8-2.79,1.1-3.9,1.85-6.89,4-14.7,10.75-14.7s8.9,7.81,10.76,14.7c.3,1.11.69,2.55,1.1,3.9.41-1.35.8-2.79,1.1-3.9C162.08,7.81,164.18,0,171,0s8.9,7.81,10.76,14.7c.3,1.11.68,2.55,1.1,3.9.41-1.35.8-2.79,1.1-3.9,1.85-6.89,4-14.7,10.75-14.7s8.9,7.81,10.76,14.7c.3,1.11.69,2.55,1.1,3.91.41-1.36.8-2.8,1.1-3.91,1.86-6.89,4-14.7,10.76-14.7s8.9,7.81,10.76,14.7c.3,1.11.69,2.55,1.1,3.91.41-1.36.8-2.8,1.1-3.91,1.86-6.89,4-14.7,10.76-14.7S251,7.81,252.89,14.7c.63,2.32,1.63,6,2.47,7.49A5,5,0,0,1,254,32ZM5,10H5Z"/></g></g></svg>