<svg xmlns="http://www.w3.org/2000/svg" viewBox="0 0 259 32"><defs><style>.cls-1{fill:none;stroke:#ec469c;stroke-linecap:round;stroke-miterlimit:10;stroke-width:10px;}</style></defs><title>squiggle-line</title><g id="Layer_2" data-name="Layer 2"><g id="Layer_1-2" data-name="Layer 1"><path class="cls-1" d="M5,5c5.93,0,5.93,22,11.86,22S22.78,5,28.71,5s5.93,22,11.86,22S46.49,5,52.42,5s5.93,22,11.85,22S70.2,5,76.12,5,82.05,27,88,27,93.91,5,99.84,5s5.92,22,11.85,22,5.93-22,11.86-22,5.93,22,11.85,22,5.93-22,11.86-22,5.93,22,11.86,22S165.05,5,171,5s5.93,22,11.86,22,5.92-22,11.85-22,5.93,22,11.86,22,5.93-22,11.86-22,5.93,22,11.86,22S236.2,5,242.13,5,248.07,27,254,27"/></g></g></svg>